# xmcd CD database file
#
# Track frame offsets:
#	150
#	9735
#	20245
#	29990
#	39070
#	56720
#	72517
#	89272
#	105215
#	117475
#	127810
#	138300
#	151235
#	162732
#	178722
#	193900
#
# Disc length: 2722 seconds
#
# Revision: 0
# Processed by: cddbd v1.5PL3 Copyright (c) Steve Scherf et al.
# Submitted via: CDex 1.50
#
DISCID=e10aa010
DTITLE=Clay Cotton - Rough Stuff Piano Party Hits
DYEAR=2003
DGENRE=Blues
TTITLE0=Stuff You Like
TTITLE1=Hot Little Mama
TTITLE2=Her Mind is Gone
TTITLE3=Mardi Gras Mambo
TTITLE4=Santa Fe Stomp
TTITLE5=Dust My Broom
TTITLE6=It's All Over Now, Baby Blue
TTITLE7=Wanna Piece o' Dis?
TTITLE8=Sea Cruise
TTITLE9=Smack Dab in the Middle
TTITLE10=Rockin' Pneumonia
TTITLE11=Ain't Nobody Here But Us Chickens
TTITLE12=Listen Here
TTITLE13=Shake, Rattle and Roll
TTITLE14=Alimony
TTITLE15=CottonBalls
EXTD=YEAR: 2003
EXTT0=
EXTT1=
EXTT2=
EXTT3=
EXTT4=
EXTT5=
EXTT6=
EXTT7=
EXTT8=
EXTT9=
EXTT10=
EXTT11=
EXTT12=
EXTT13=
EXTT14=
EXTT15=
PLAYORDER=
